<svg width="51" height="51" viewBox="0 0 51 51" fill="none" xmlns="http://www.w3.org/2000/svg">
<circle cx="25.5" cy="25.5" r="25.5" fill="white"/>
<path d="M13 23C11.8954 23 11 23.8954 11 25C11 26.1046 11.8954 27 13 27V23ZM39.4142 26.4142C40.1953 25.6332 40.1953 24.3668 39.4142 23.5858L26.6863 10.8579C25.9052 10.0768 24.6389 10.0768 23.8579 10.8579C23.0768 11.6389 23.0768 12.9052 23.8579 13.6863L35.1716 25L23.8579 36.3137C23.0768 37.0948 23.0768 38.3611 23.8579 39.1421C24.6389 39.9232 25.9052 39.9232 26.6863 39.1421L39.4142 26.4142ZM13 27L38 27V23L13 23V27Z" fill="#064663"/>
</svg>
